<svg width="29" height="29" viewBox="0 0 29 29" fill="none" xmlns="http://www.w3.org/2000/svg">
<path fill-rule="evenodd" clip-rule="evenodd" d="M14.3804 20.3126C11.0271 20.3126 8.3011 17.5865 8.3011 14.2333C8.3011 10.88 11.0271 8.15397 14.3804 8.15397C17.7337 8.15397 20.4597 10.88 20.4597 14.2333C20.4597 17.5865 17.7578 20.3126 14.3804 20.3126ZM14.3804 0C10.6894 0 7.31201 1.3992 4.80309 3.71512L1.25684 0.192994C0.846726 -0.217117 0.171249 0.0723722 0.171249 0.651353V14.2333C0.171249 22.0736 6.54003 28.4424 14.3804 28.4424C18.0714 28.4424 21.4488 27.0432 23.9577 24.7273L27.4798 28.2494C27.8899 28.6595 28.5654 28.37 28.5654 27.7911V14.2091C28.5895 6.36878 22.2207 0 14.3804 0Z" fill="#F56563"/>
</svg>
