<svg width="26" height="14" viewBox="0 0 26 14" fill="none" xmlns="http://www.w3.org/2000/svg">
<path fill-rule="evenodd" clip-rule="evenodd" d="M12.5993 6.55947C14.3389 6.55947 15.7492 5.14924 15.7492 3.40962C15.7492 1.67 14.3389 0.259766 12.5993 0.259766C10.8597 0.259766 9.44948 1.67 9.44948 3.40962C9.44948 5.14924 10.8597 6.55947 12.5993 6.55947ZM23.099 3.93444C23.099 5.09418 22.1588 6.03434 20.9991 6.03434C19.8393 6.03434 18.8992 5.09418 18.8992 3.93444C18.8992 2.77469 19.8393 1.83453 20.9991 1.83453C22.1588 1.83453 23.099 2.77469 23.099 3.93444ZM5.24965 11.0217C5.24965 9.58329 5.94262 8.30235 7.00307 7.50439C6.57259 7.2419 6.05811 7.08441 5.51214 7.08441H2.88726C1.29133 7.08441 -0.000106812 8.37585 -0.000106812 9.97178V10.4968C-0.000106812 10.9272 0.356877 11.2842 0.787357 11.2842H5.24965V11.0217ZM5.09992 6.03434C6.25966 6.03434 7.19982 5.09418 7.19982 3.93444C7.19982 2.77469 6.25966 1.83453 5.09992 1.83453C3.94017 1.83453 3.00002 2.77469 3.00002 3.93444C3.00002 5.09418 3.94017 6.03434 5.09992 6.03434ZM25.1987 10.4968V9.97178C25.1987 8.37585 23.9073 7.08441 22.3114 7.08441H19.6865C19.1405 7.08441 18.6261 7.2419 18.1956 7.50439C19.256 8.30235 19.949 9.58329 19.949 11.0217V11.2842H24.4113C24.8418 11.2842 25.1987 10.9272 25.1987 10.4968ZM9.71191 8.1344H15.4866C17.0794 8.1344 18.374 9.42899 18.374 11.0218V12.5967C18.374 13.0314 18.0212 13.3842 17.5865 13.3842H7.612C7.17732 13.3842 6.82454 13.0314 6.82454 12.5967V11.0218C6.82454 9.42899 8.11913 8.1344 9.71191 8.1344Z" fill="#F5F5F5"/>
</svg>
