<svg width="22" height="20" viewBox="0 0 22 20" fill="none" xmlns="http://www.w3.org/2000/svg">
<path d="M10.8191 0.735503C10.8678 0.585723 11.0796 0.585723 11.1283 0.735503L13.4009 7.72994C13.4227 7.79692 13.4851 7.84227 13.5556 7.84227H20.9099C21.0674 7.84227 21.1329 8.0438 21.0055 8.13637L15.0557 12.4592C14.9987 12.5006 14.9749 12.5739 14.9966 12.6409L17.2693 19.6354C17.3179 19.7851 17.1465 19.9097 17.0191 19.8171L11.0693 15.4943C11.0123 15.4529 10.9351 15.4529 10.8781 15.4943L4.92832 19.8171C4.80091 19.9097 4.62948 19.7851 4.67815 19.6354L6.95078 12.6409C6.97254 12.5739 6.9487 12.5006 6.89172 12.4592L0.941896 8.13637C0.814485 8.0438 0.879966 7.84227 1.03745 7.84227H8.39184C8.46227 7.84227 8.52469 7.79692 8.54645 7.72994L10.8191 0.735503Z" fill="#F5F5F5"/>
</svg>
